<svg xmlns="http://www.w3.org/2000/svg" width="454.614" height="283.827" viewBox="0 0 454.614 283.827">
  <g id="error" transform="translate(-1207.823 -284)">
    <circle id="Ellipse_6" data-name="Ellipse 6" cx="86.488" cy="86.488" r="86.488" transform="translate(1240.147 284)" fill="#f2f2f2"/>
    <path id="Path_41" data-name="Path 41" d="M31.391,151.642c0,31.468,19.741,56.931,44.138,56.931" transform="translate(1176.432 153.124)" fill="#2f2e41"/>
    <path id="Path_42" data-name="Path 42" d="M140.092,207.638c0-31.821,22.03-57.571,49.255-57.571" transform="translate(1111.868 154.059)" fill="#2f2e41"/>
    <path id="Path_43" data-name="Path 43" d="M70.775,158.668c0,29.891,12.589,54.078,28.146,54.078" transform="translate(1153.039 148.951)" fill="#3f3d56"/>
    <path id="Path_44" data-name="Path 44" d="M140.092,184.245c0-40.661,25.463-73.563,56.931-73.563" transform="translate(1111.868 177.452)" fill="#2f2e41"/>
    <path id="Path_45" data-name="Path 45" d="M117.224,287.892s6.259-.193,8.146-1.536,9.629-2.947,10.1-.793,9.407,10.715,2.34,10.772-16.42-1.1-18.3-2.248S117.224,287.892,117.224,287.892Z" transform="translate(1125.451 74.207)" fill="#a8a8a8"/>
    <path id="Path_46" data-name="Path 46" d="M137.932,300.52c-7.067.057-16.42-1.1-18.3-2.248-1.434-.873-2.005-4.007-2.2-5.453l-.209.008s.4,5.048,2.279,6.2,11.236,2.3,18.3,2.248c2.04-.016,2.745-.742,2.706-1.817C140.229,300.1,139.451,300.508,137.932,300.52Z" transform="translate(1125.451 69.271)" opacity="0.2"/>
    <ellipse id="Ellipse_7" data-name="Ellipse 7" cx="75.931" cy="10.33" rx="75.931" ry="10.33" transform="translate(1212.536 446.037)" fill="#3f3d56"/>
    <ellipse id="Ellipse_8" data-name="Ellipse 8" cx="63.749" cy="8.673" rx="63.749" ry="8.673" transform="translate(1224.718 447.694)" opacity="0.1"/>
    <ellipse id="Ellipse_9" data-name="Ellipse 9" cx="114.911" cy="15.633" rx="114.911" ry="15.633" transform="translate(1432.614 536.561)" fill="#3f3d56"/>
    <ellipse id="Ellipse_10" data-name="Ellipse 10" cx="69.028" cy="9.391" rx="69.028" ry="9.391" transform="translate(1264.916 536.712)" fill="#3f3d56"/>
    <path id="Path_47" data-name="Path 47" d="M494,673.044c36.544,9.339,106.79-12.181,114.505-36.544" transform="translate(901.663 -134.859)" fill="none" stroke="#2f2e41" stroke-miterlimit="10" stroke-width="2"/>
    <path id="Path_48" data-name="Path 48" d="M341,356.364s52.786-14.618,56.034,32.484-43.447,60.5-6.9,69.84" transform="translate(992.538 32.802)" fill="none" stroke="#2f2e41" stroke-miterlimit="10" stroke-width="2"/>
    <path id="Path_49" data-name="Path 49" d="M215.4,636.841s15.865-4.393,16.841,9.763-13.058,18.184-2.075,20.991" transform="translate(1067.137 -134.679)" fill="none" stroke="#2f2e41" stroke-miterlimit="10" stroke-width="2"/>
    <path id="Path_50" data-name="Path 50" d="M792.807,661.94l-3.2,20.422s-15.747,8.366-4.675,8.612,63.235,0,63.235,0,10.088,0-5.905-8.858l-3.2-21.406Z" transform="translate(731.206 -149.239)" fill="#2f2e41"/>
    <path id="Path_51" data-name="Path 51" d="M782.711,690.753a43.55,43.55,0,0,1,6.9-4.569l3.2-20.422,46.258.044,3.2,20.133a42.005,42.005,0,0,1,7.391,4.864c2.054-.469,4.3-2.21-7.391-8.685l-3.2-21.406-46.258,1.23-3.2,20.422S776.381,689.393,782.711,690.753Z" transform="translate(731.201 -149.239)" opacity="0.1"/>
    <rect id="Rectangle_7" data-name="Rectangle 7" width="208.405" height="145.17" rx="18.046" transform="translate(1442.693 370.361)" fill="#2f2e41"/>
    <rect id="Rectangle_8" data-name="Rectangle 8" width="194.38" height="108.754" transform="translate(1449.706 378.112)" fill="#3f3d56"/>
    <circle id="Ellipse_11" data-name="Ellipse 11" cx="1.23" cy="1.23" r="1.23" transform="translate(1545.665 373.437)" fill="#f2f2f2"/>
    <path id="Path_52" data-name="Path 52" d="M818.228,621.322v12.726a7.326,7.326,0,0,1-7.328,7.327H617.151a7.327,7.327,0,0,1-7.327-7.328V621.322Z" transform="translate(832.869 -125.844)" fill="#2f2e41"/>
    <path id="Path_53" data-name="Path 53" d="M775.343,654.509v2.461H642.968V655l.182-.492,3.263-8.858H772.637Z" transform="translate(825.929 -99.487)" fill="#2f2e41"/>
    <path id="Path_54" data-name="Path 54" d="M1071.466,749.641c-.241,1.031-1.151,2.119-3.208,3.147-7.382,3.691-22.391-.984-22.391-.984s-11.564-1.968-11.564-7.135a9.217,9.217,0,0,1,1.014-.6c3.1-1.642,13.393-5.693,31.638.172a7.608,7.608,0,0,1,3.468,2.273A3.629,3.629,0,0,1,1071.466,749.641Z" transform="translate(580.749 -197.027)" fill="#2f2e41"/>
    <path id="Path_55" data-name="Path 55" d="M1072.949,749.641c-9.035,3.462-17.088,3.72-25.353-2.02a18.15,18.15,0,0,0-10.8-3.555c3.1-1.642,13.393-5.693,31.638.172a7.609,7.609,0,0,1,3.468,2.273A3.629,3.629,0,0,1,1072.949,749.641Z" transform="translate(579.266 -197.027)" opacity="0.1"/>
    <ellipse id="Ellipse_12" data-name="Ellipse 12" cx="3.199" cy="0.984" rx="3.199" ry="0.984" transform="translate(1637.688 548.625)" fill="#f2f2f2"/>
    <circle id="Ellipse_13" data-name="Ellipse 13" cx="4.675" cy="4.675" r="4.675" transform="translate(1542.221 500.891)" fill="#f2f2f2"/>
    <path id="Path_56" data-name="Path 56" d="M775.343,667.466v2.461H642.968v-1.969l.182-.492Z" transform="translate(825.929 -112.444)" opacity="0.1"/>
    <rect id="Rectangle_9" data-name="Rectangle 9" width="84.458" height="98.263" transform="translate(1251.923 348.561)" fill="#2f2e41"/>
    <rect id="Rectangle_10" data-name="Rectangle 10" width="101.512" height="34.92" transform="translate(1243.396 338.816)" fill="#3f3d56"/>
    <rect id="Rectangle_11" data-name="Rectangle 11" width="101.512" height="34.92" transform="translate(1243.396 380.233)" fill="#3f3d56"/>
    <rect id="Rectangle_12" data-name="Rectangle 12" width="101.512" height="34.92" transform="translate(1243.396 421.65)" fill="#3f3d56"/>
    <rect id="Rectangle_13" data-name="Rectangle 13" width="6.497" height="6.497" transform="translate(1318.109 344.907)" fill="#f49820" opacity="0.4"/>
    <rect id="Rectangle_14" data-name="Rectangle 14" width="6.497" height="6.497" transform="translate(1327.448 344.907)" fill="#f49820" opacity="0.8"/>
    <rect id="Rectangle_15" data-name="Rectangle 15" width="6.497" height="6.497" transform="translate(1336.787 344.907)" fill="#f49820"/>
    <rect id="Rectangle_16" data-name="Rectangle 16" width="6.497" height="6.497" transform="translate(1318.109 385.918)" fill="#f49820" opacity="0.4"/>
    <rect id="Rectangle_17" data-name="Rectangle 17" width="6.497" height="6.497" transform="translate(1327.448 385.918)" fill="#f49820" opacity="0.8"/>
    <rect id="Rectangle_18" data-name="Rectangle 18" width="6.497" height="6.497" transform="translate(1336.787 385.918)" fill="#f49820"/>
    <rect id="Rectangle_19" data-name="Rectangle 19" width="6.497" height="6.497" transform="translate(1318.109 426.928)" fill="#f49820" opacity="0.4"/>
    <rect id="Rectangle_20" data-name="Rectangle 20" width="6.497" height="6.497" transform="translate(1327.448 426.928)" fill="#f49820" opacity="0.8"/>
    <rect id="Rectangle_21" data-name="Rectangle 21" width="6.497" height="6.497" transform="translate(1336.787 426.928)" fill="#f49820"/>
    <circle id="Ellipse_14" data-name="Ellipse 14" cx="32.078" cy="32.078" r="32.078" transform="translate(1304.303 470.375)" fill="#2f2e41"/>
    <rect id="Rectangle_22" data-name="Rectangle 22" width="9.745" height="17.46" transform="translate(1321.763 527.628)" fill="#2f2e41"/>
    <rect id="Rectangle_23" data-name="Rectangle 23" width="9.745" height="17.46" transform="translate(1341.253 527.628)" fill="#2f2e41"/>
    <ellipse id="Ellipse_15" data-name="Ellipse 15" cx="8.121" cy="3.045" rx="8.121" ry="3.045" transform="translate(1321.763 542.246)" fill="#2f2e41"/>
    <ellipse id="Ellipse_16" data-name="Ellipse 16" cx="8.121" cy="3.045" rx="8.121" ry="3.045" transform="translate(1341.253 541.84)" fill="#2f2e41"/>
    <circle id="Ellipse_17" data-name="Ellipse 17" cx="10.963" cy="10.963" r="10.963" transform="translate(1326.229 483.369)" fill="#fff"/>
    <circle id="Ellipse_18" data-name="Ellipse 18" cx="3.654" cy="3.654" r="3.654" transform="translate(1333.538 490.678)" fill="#3f3d56"/>
    <path id="Path_57" data-name="Path 57" d="M270.674,525.811c-2.59-11.6,5.689-23.321,18.493-26.18s25.283,4.227,27.873,15.827-5.9,15.878-18.7,18.737S273.264,537.41,270.674,525.811Z" transform="translate(1034.59 -53.189)" fill="#fff"/>
    <ellipse id="Ellipse_19" data-name="Ellipse 19" cx="16.039" cy="5.035" rx="16.039" ry="5.035" transform="translate(1347.759 493.107) rotate(-23.171)" fill="#2f2e41"/>
    <ellipse id="Ellipse_20" data-name="Ellipse 20" cx="16.039" cy="5.035" rx="16.039" ry="5.035" transform="translate(1287.664 514.628) rotate(-23.171)" fill="#2f2e41"/>
    <path id="Path_58" data-name="Path 58" d="M343.514,658.252c0,3.14-8.084,9.339-17.054,9.339S309,661.8,309,658.658s8.49-2.436,17.46-2.436S343.514,655.113,343.514,658.252Z" transform="translate(1011.545 -146.46)" fill="#fff"/>
  </g>
</svg>
