<svg xmlns="http://www.w3.org/2000/svg" width="365.413" height="283.799" viewBox="0 0 365.413 283.799">
  <g id="subscriber" transform="translate(-1163 -284)">
    <circle id="Ellipse_6" data-name="Ellipse 6" cx="133.153" cy="133.153" r="133.153" transform="translate(1222.973 284)" fill="#fff"/>
    <path id="Path_41" data-name="Path 41" d="M413.754,793.2c0,5.52-72.88,17.135-162.783,17.135S88.189,798.719,88.189,793.2s72.88-2.856,162.783-2.856S413.754,787.678,413.754,793.2Z" transform="translate(1074.811 -242.534)" fill="#3f3d56"/>
    <path id="Path_42" data-name="Path 42" d="M413.754,793.2c0,5.52-72.88,17.135-162.783,17.135S88.189,798.719,88.189,793.2s72.88-2.856,162.783-2.856S413.754,787.678,413.754,793.2Z" transform="translate(1074.811 -242.534)" opacity="0.1"/>
    <ellipse id="Ellipse_7" data-name="Ellipse 7" cx="162.783" cy="9.995" rx="162.783" ry="9.995" transform="translate(1163 540.669)" fill="#3f3d56"/>
    <ellipse id="Ellipse_8" data-name="Ellipse 8" cx="65.684" cy="6.069" rx="65.684" ry="6.069" transform="translate(1261.169 541.026)" opacity="0.1"/>
    <path id="Path_43" data-name="Path 43" d="M827.189,667.412c0,22.563,14.155,40.82,31.647,40.82" transform="translate(599.619 -163.901)" fill="#3f3d56"/>
    <path id="Path_44" data-name="Path 44" d="M915.841,707.406c0-22.816,15.8-41.279,35.316-41.279" transform="translate(542.614 -163.075)" fill="#f9a825"/>
    <path id="Path_45" data-name="Path 45" d="M859.309,673.142c0,21.432,9.026,38.775,20.181,38.775" transform="translate(910.698 -444.841) rotate(22)" fill="#3f3d56"/>
    <path id="Path_46" data-name="Path 46" d="M915.841,686.752c0-29.154,18.257-52.745,40.82-52.745" transform="translate(542.614 -142.421)" fill="#3f3d56"/>
    <path id="Path_47" data-name="Path 47" d="M897.19,778.2s4.488-.138,5.841-1.1,6.9-2.113,7.239-.568,6.745,7.683,1.678,7.723-11.773-.789-13.123-1.612S897.19,778.2,897.19,778.2Z" transform="translate(554.607 -233.579)" fill="#a8a8a8"/>
    <path id="Path_48" data-name="Path 48" d="M912.039,788.072c-5.067.041-11.773-.789-13.123-1.612-1.028-.626-1.438-2.873-1.575-3.91l-.15.006s.284,3.62,1.634,4.442,8.056,1.652,13.123,1.612c1.463-.012,1.968-.532,1.94-1.3C913.685,787.772,913.127,788.063,912.039,788.072Z" transform="translate(554.607 -237.937)" opacity="0.2"/>
    <rect id="Rectangle_7" data-name="Rectangle 7" width="80.677" height="47.121" transform="translate(1289.728 502.472)" fill="#3f3d56"/>
    <path id="Path_49" data-name="Path 49" d="M595.719,542.316h-59.48a7.354,7.354,0,0,1-7.354-7.354V507.711a2.914,2.914,0,0,1,.909-2.115l31.519-29.877a6.784,6.784,0,0,1,9.334,0L600.7,504.205a7.616,7.616,0,0,1,2.377,5.527v25.229A7.355,7.355,0,0,1,595.719,542.316Z" transform="translate(791.435 -39.442)" fill="#2f2e41"/>
    <path id="Path_50" data-name="Path 50" d="M440.7,517.441h73.571v23.9A10.257,10.257,0,0,1,504.01,551.6H450.953A10.257,10.257,0,0,1,440.7,541.342Z" transform="translate(879.623 -48.725)" opacity="0.1"/>
    <path id="Path_51" data-name="Path 51" d="M528.668,564.962" transform="translate(791.574 -98.023)" fill="none" stroke="#3f3d56" stroke-miterlimit="10" stroke-width="1"/>
    <rect id="Rectangle_8" data-name="Rectangle 8" width="54.714" height="54.714" rx="11.336" transform="translate(1329.979 445.3)" fill="#eee"/>
    <path id="Path_52" data-name="Path 52" d="M522.471,520.883v30.07H467.757v-30.07l27.357,13.223Z" transform="translate(862.223 -50.938)" opacity="0.1"/>
    <path id="Path_53" data-name="Path 53" d="M565.763,584.413,530.709,567.47a1.422,1.422,0,0,0-2.041,1.28V597.9a4.441,4.441,0,0,0,4.441,4.441h65.307a4.441,4.441,0,0,0,4.441-4.441V569.25a1.736,1.736,0,0,0-2.491-1.563Z" transform="translate(791.574 -99.545)" fill="#2f2e41"/>
    <rect id="Rectangle_9" data-name="Rectangle 9" width="15.301" height="2.164" transform="translate(1334.694 450.323)"/>
    <rect id="Rectangle_10" data-name="Rectangle 10" width="45.441" height="1.236" transform="translate(1333.457 458.206)"/>
    <rect id="Rectangle_11" data-name="Rectangle 11" width="45.441" height="1.236" transform="translate(1333.457 462.379)"/>
    <rect id="Rectangle_12" data-name="Rectangle 12" width="45.441" height="1.236" transform="translate(1333.457 466.552)"/>
    <ellipse id="Ellipse_9" data-name="Ellipse 9" cx="6.337" cy="6.349" rx="6.337" ry="6.349" transform="translate(1325.884 439.813)" fill="#fff"/>
    <path id="Path_54" data-name="Path 54" d="M548.581,485.945a7.573,7.573,0,1,0,7.573,7.573A7.573,7.573,0,0,0,548.581,485.945Zm-1.555,11.611-3.881-3.881,1.089-1.089,2.8,2.8,5.9-5.9,1.089,1.089Z" transform="translate(783.64 -47.214)" fill="#57b894"/>
    <rect id="Rectangle_13" data-name="Rectangle 13" width="164.211" height="68.54" transform="translate(1364.202 323.628)" fill="#3f3d56"/>
    <path id="Path_55" data-name="Path 55" d="M802.494,271.641H783.931a64.924,64.924,0,0,1,0-22.133h18.563A39.825,39.825,0,0,0,802.494,271.641Z" transform="translate(628.046 104.82)" fill="#fddd36"/>
    <path id="Path_56" data-name="Path 56" d="M947.824,271.641H929.261a64.921,64.921,0,0,1,0-22.133h18.563A39.826,39.826,0,0,0,947.824,271.641Z" transform="translate(534.595 104.82)" fill="#fddd36"/>
    <path id="Path_57" data-name="Path 57" d="M728.663,229.641H710.1a64.927,64.927,0,0,1,0-22.133h18.563A39.824,39.824,0,0,0,728.663,229.641Z" transform="translate(675.521 131.827)" fill="#f9a825"/>
    <path id="Path_58" data-name="Path 58" d="M856.811,229.641h18.563a64.927,64.927,0,0,0,0-22.133H856.811A39.826,39.826,0,0,1,856.811,229.641Z" transform="translate(580.571 131.827)" fill="#f9a825"/>
    <path id="Path_59" data-name="Path 59" d="M999.811,229.641h18.563a64.927,64.927,0,0,0,0-22.133H999.811A39.823,39.823,0,0,1,999.811,229.641Z" transform="translate(488.619 131.827)" fill="#f9a825"/>
    <path id="Path_60" data-name="Path 60" d="M324.29,214.414a2.653,2.653,0,0,0-1.539.344,4.013,4.013,0,0,0-1.041,1.374,16.432,16.432,0,0,1-4.476,5.056c-1.33.974-3.021,2.189-2.793,3.986a5.387,5.387,0,0,0,.648,1.683c1.227,2.477,4.575,4.391,4.246,7.217,1.219-2.041-.412-3.05.808-5.091.581-.972,1.589-2.069,2.466-1.459.293.2.486.571.792.75.729.428,1.5-.39,2.15-.97,2.226-2,5.391-1.475,8.16-.852a5.1,5.1,0,0,1,3.517,1.929c1.016,1.643-.966,3.418-1.466,5.275a1.012,1.012,0,0,0,1.086,1.26c.831-.082,1.815-.149,1.865-.514,1.046.037,2.327-.081,2.775-1.17a4.577,4.577,0,0,0,.215-1.331,27.382,27.382,0,0,1,1.455-5.238c.514-1.741.738-3.78-.13-5.324a6.16,6.16,0,0,0-1.137-1.382C336.965,215.193,330.491,214.407,324.29,214.414Z" transform="translate(929.34 127.392)" fill="#2f2e41"/>
    <path id="Path_61" data-name="Path 61" d="M323.995,276.437s1.071,8.924-2.856,9.638,3.57,12.851,3.57,12.851l17.849,2.142-4.284-14.279s-2.856-1.071-1.071-8.211S323.995,276.437,323.995,276.437Z" transform="translate(925.751 88.598)" fill="#ffb9b9"/>
    <path id="Path_62" data-name="Path 62" d="M212.5,656.5l1.428,19.634h7.5L219.283,656.5Z" transform="translate(1026.358 -138.143)" fill="#ffb9b9"/>
    <path id="Path_63" data-name="Path 63" d="M366.5,551.215l1.071,16.421,8.211-3.57L372.569,550.5Z" transform="translate(927.333 -69.983)" fill="#ffb9b9"/>
    <path id="Path_64" data-name="Path 64" d="M285.689,471.5s.357,20.7,2.5,27.487,1.785,7.14,1.428,8.211-.714.357-.714,2.142-.714,29.986,0,32.485-2.142,6.783,0,7.14,12.137,0,12.494-2.142-2.856-2.856-1.428-4.284,3.57-30.7,3.57-30.7l5-20.348,9.281-10.709h19.634l6.069,23.561s-2.5,6.783-.714,6.783,12.494,2.142,12.494-5.712-3.57-31.057-4.284-31.771.357-3.213-.714-4.284-13.565-8.568-18.206-10-11.151-3.127-11.151-3.127Z" transform="translate(947.815 -28.113)" fill="#3f3d56"/>
    <path id="Path_65" data-name="Path 65" d="M463.559,632.486a6.419,6.419,0,0,0-7.854,3.57c-2.5,5.355-1.428,6.783-1.428,6.783s8.211,2.856,9.638,1.428c.621-.621,2.594-.837,4.625-.883,3.093-.069,3.916-4.445.995-5.464q-.131-.046-.265-.079C466.415,637.127,463.559,632.486,463.559,632.486Z" transform="translate(839.555 -141.259)" fill="#2f2e41"/>
    <circle id="Ellipse_10" data-name="Ellipse 10" cx="10.709" cy="10.709" r="10.709" transform="translate(1247.069 349.506)" fill="#ffb9b9"/>
    <path id="Path_66" data-name="Path 66" d="M298.613,313.422s17.492,3.57,21.776-2.142,6.069,16.064,6.069,16.064l2.142,22.847-3.213,12.494s-16.778,13.565-22.133,14.636-13.565,1.785-13.565,1.785,2.5-39.625,2.5-40.339S298.613,313.422,298.613,313.422Z" transform="translate(945.243 65.713)" fill="#f79b20"/>
    <path id="Path_67" data-name="Path 67" d="M290.183,298.413s-3.892-2.229-4.963-.088-11.066,7.5-12.137,7.5,2.142,29.629.714,33.2-8.211,29.629-4.284,31.771,1.071-2.142,5,3.213,23.2,5.355,24.275,3.213-8.568-18.206-6.783-33.2,4.641-35.7,2.142-38.554A24.834,24.834,0,0,1,290.183,298.413Z" transform="translate(958.993 74.027)" fill="#d0cde1"/>
    <path id="Path_68" data-name="Path 68" d="M365.689,303.918l.5-1.711s14.853,4.924,15.567,8.137.357,25.7-2.142,27.487-6.069,4.641-3.57,8.924,5.355,8.924,7.5,9.281,6.069,2.856,5,5.355-13.922-2.142-13.922-2.142-8.568-6.426-8.211-16.421S365.689,303.918,365.689,303.918Z" transform="translate(896.373 70.934)" fill="#d0cde1"/>
    <path id="Path_69" data-name="Path 69" d="M371.642,425l-8.568,16.064s-12.494,12.851-5.355,14.279,11.066-11.78,11.066-11.78l9.281-13.208Z" transform="translate(902.915 -8.025)" fill="#ffb9b9"/>
    <path id="Path_70" data-name="Path 70" d="M329.058,222.267a2.43,2.43,0,0,0-1.252.243,2.919,2.919,0,0,0-.847.971,12.334,12.334,0,0,1-3.644,3.574c-1.083.689-2.459,1.547-2.274,2.817a3.522,3.522,0,0,0,.528,1.189,9.354,9.354,0,0,1,1.137,5.83l2.977-4.327c.473-.687,1.294-1.462,2.007-1.031.239.144.4.4.645.53.594.3,1.225-.276,1.75-.685,1.812-1.412,4.388-1.042,6.643-.6a4.352,4.352,0,0,1,2.863,1.363c1.046,1.468-.046,3.589.564,5.284a1.558,1.558,0,0,0,.645-1.029c.851.026,1.894-.057,2.259-.827a2.85,2.85,0,0,0,.175-.941,17.407,17.407,0,0,1,1.184-3.7,4.4,4.4,0,0,0-.106-3.763,4.552,4.552,0,0,0-.925-.977C339.375,222.818,334.105,222.262,329.058,222.267Z" transform="translate(925.094 122.341)" fill="#2f2e41"/>
    <path id="Path_71" data-name="Path 71" d="M395.544,321l3.326.883s7.74,19.822,5.955,33.387-2.856,10.709-2.856,10.709-2.856-6.426-9.281-5Z" transform="translate(879.012 58.849)" fill="#d0cde1"/>
    <path id="Path_72" data-name="Path 72" d="M291.511,754.853c-.861,1.17-.688,2.842-1.451,4.078-.661,1.072-1.907,1.633-2.733,2.583a6.926,6.926,0,0,0-.7,1.011c-.767,1.285-1.39,2.931-.635,4.223a4.534,4.534,0,0,0,3.056,1.722,11.213,11.213,0,0,0,4.516.362,4.5,4.5,0,0,0,3.5-2.609,10.075,10.075,0,0,1,.374-1.055c.812-1.6,3.358-1.615,4.188-3.2.581-1.111.047-2.455-.487-3.59l-1.632-3.466c-.541-1.15-2.736-.489-3.881-.764C294.128,753.785,292.585,753.389,291.511,754.853Z" transform="translate(947.841 -219.456)" fill="#2f2e41"/>
    <path id="Path_73" data-name="Path 73" d="M234.2,466.73l6.33,8.619L265.217,462.6l1.424-.733L235.8,459.871Z" transform="translate(1012.403 -11.706)" fill="#fff"/>
    <path id="Path_74" data-name="Path 74" d="M235.165,472.105l5.986,8.152L265.836,467.5Z" transform="translate(1011.784 -16.614)" opacity="0.2"/>
    <path id="Path_75" data-name="Path 75" d="M228.7,480.383l1.145-7.475,33.381-7.438Z" transform="translate(1015.939 -15.307)" fill="#fff"/>
    <path id="Path_76" data-name="Path 76" d="M268.689,440.5l14.993,23.2s9.281,11.78,12.137,6.426-10-14.279-10-14.279L276.185,438Z" transform="translate(958.746 -16.384)" fill="#ffb9b9"/>
    <path id="Path_77" data-name="Path 77" d="M270.492,321.714,267.636,321s-5.712,1.785-7.14,9.281-.357,37.483,1.428,37.84,8.816-5.221,9.941-4.039-2.444-4.886-1.373-8.1S270.492,321.714,270.492,321.714Z" transform="translate(964.439 58.849)" fill="#d0cde1"/>
  </g>
</svg>
