<svg xmlns="http://www.w3.org/2000/svg" width="296.255" height="283.799" viewBox="0 0 296.255 283.799">
  <g id="vueorange" transform="translate(-812 -190)">
    <path id="Path_1" data-name="Path 1" d="M443.93,142.851C428.511,82.219,375.233,38.452,312.7,36.7c-33.061-.928-67.851,10.037-93.181,48.407-45.279,68.591,2.783,115.99,36.29,138.513a209.664,209.664,0,0,1,43.337,38.951c22.633,26.858,66.174,60.233,118.03,7.94C454.757,232.605,454.2,183.238,443.93,142.851Z" transform="translate(622.13 153.357)" fill="#fff"/>
    <path id="Path_2" data-name="Path 2" d="M464.412,716.975c0,14.883-64.946,42.567-146.755,42.567S168.5,733.574,168.5,718.691s67.349-13.045,149.158-13.045S464.412,702.092,464.412,716.975Z" transform="translate(643.5 -285.743)" fill="#3f3d56"/>
    <path id="Path_3" data-name="Path 3" d="M464.412,716.975c0,14.883-64.946,42.567-146.755,42.567S168.5,733.574,168.5,718.691s67.349-13.045,149.158-13.045S464.412,702.092,464.412,716.975Z" transform="translate(643.5 -285.743)" opacity="0.1"/>
    <ellipse id="Ellipse_1" data-name="Ellipse 1" cx="148.128" cy="26.948" rx="148.128" ry="26.948" transform="translate(812 405.829)" fill="#3f3d56"/>
    <path id="Path_4" data-name="Path 4" d="M594.859,440.238v72.071l12.055,19.647.918,1.494H655.4l.961-93.212Z" transform="translate(421.348 -99.111)" fill="#2f2e41"/>
    <path id="Path_5" data-name="Path 5" d="M594.859,440.238v72.071l12.055,19.647.74-91.717Z" transform="translate(421.348 -99.111)" opacity="0.1"/>
    <path id="Path_6" data-name="Path 6" d="M142.7,434.639V506.71L130.64,526.356l-.918,1.494H82.156l-.961-93.212Z" transform="translate(758.678 -95.434)" fill="#2f2e41"/>
    <path id="Path_7" data-name="Path 7" d="M235.87,434.639V506.71l-12.055,19.647-.74-91.717Z" transform="translate(665.503 -95.434)" opacity="0.1"/>
    <path id="Path_8" data-name="Path 8" d="M321.494,402.866v4.324H63v-6.246l24.023-12.492h213.33Z" transform="translate(770.627 -65.102)" fill="#2f2e41"/>
    <path id="Path_9" data-name="Path 9" d="M321.494,426.764v4.324H63v-6.246Z" transform="translate(770.627 -89)" opacity="0.1"/>
    <path id="Path_10" data-name="Path 10" d="M139.52,486.99H127.989l-4.8-3.363h21.621Z" transform="translate(731.103 -127.604)" opacity="0.1"/>
    <path id="Path_11" data-name="Path 11" d="M139.52,527.579H127.989l-4.8-3.364h21.621Z" transform="translate(731.103 -154.26)" opacity="0.1"/>
    <path id="Path_12" data-name="Path 12" d="M139.52,584.964H127.989l-4.8-3.364h21.621Z" transform="translate(731.103 -191.945)" opacity="0.1"/>
    <path id="Path_13" data-name="Path 13" d="M139.52,642.348H127.989l-4.8-3.363h21.621Z" transform="translate(731.103 -229.631)" opacity="0.1"/>
    <path id="Path_14" data-name="Path 14" d="M674.324,492.588h11.531l4.8-3.363H669.039Z" transform="translate(372.632 -131.281)" opacity="0.1"/>
    <path id="Path_15" data-name="Path 15" d="M674.324,533.177h11.531l4.8-3.363H669.039Z" transform="translate(372.632 -157.936)" opacity="0.1"/>
    <path id="Path_16" data-name="Path 16" d="M674.324,590.562h11.531l4.8-3.363H669.039Z" transform="translate(372.632 -195.622)" opacity="0.1"/>
    <path id="Path_17" data-name="Path 17" d="M674.324,647.947h11.531l4.8-3.364H669.039Z" transform="translate(372.632 -233.307)" opacity="0.1"/>
    <path id="Path_18" data-name="Path 18" d="M689.687,388.89l-1.6,10.233s-7.89,4.192-2.342,4.315,31.684,0,31.684,0,5.055,0-2.959-4.438l-1.6-10.726Z" transform="translate(305.118 -77.564)" fill="#3f3d56"/>
    <path id="Path_19" data-name="Path 19" d="M684.629,403.327a21.82,21.82,0,0,1,3.458-2.289l1.6-10.232,23.177.022,1.6,10.087a21.044,21.044,0,0,1,3.7,2.437c1.029-.235,2.154-1.107-3.7-4.352l-1.6-10.726-23.177.616-1.6,10.232S681.457,402.645,684.629,403.327Z" transform="translate(305.115 -77.564)" opacity="0.1"/>
    <rect id="Rectangle_1" data-name="Rectangle 1" width="104.421" height="72.737" rx="10.695" transform="translate(954.06 240.007)" fill="#3f3d56"/>
    <rect id="Rectangle_2" data-name="Rectangle 2" width="97.394" height="54.491" transform="translate(957.573 243.89)" fill="#fff"/>
    <circle id="Ellipse_2" data-name="Ellipse 2" cx="0.616" cy="0.616" r="0.616" transform="translate(1005.654 241.548)" fill="#f2f2f2"/>
    <path id="Path_20" data-name="Path 20" d="M686.745,364.931v6.376a3.671,3.671,0,0,1-3.672,3.671H586a3.671,3.671,0,0,1-3.671-3.672v-6.376Z" transform="translate(371.736 -62.234)" fill="#3f3d56"/>
    <circle id="Ellipse_3" data-name="Ellipse 3" cx="2.342" cy="2.342" r="2.342" transform="translate(1003.928 305.409)" fill="#f2f2f2"/>
    <path id="Path_21" data-name="Path 21" d="M428.4,406.706v1.233H362.071v-.986l.091-.247,1.635-4.438h63.244Z" transform="translate(574.223 -74.175)" fill="#3f3d56"/>
    <path id="Path_22" data-name="Path 22" d="M762.513,440.2c-.121.517-.577,1.061-1.608,1.577-3.7,1.849-11.219-.493-11.219-.493s-5.794-.986-5.794-3.575a4.623,4.623,0,0,1,.508-.3c1.555-.823,6.711-2.853,15.852.086a3.812,3.812,0,0,1,1.738,1.139A1.818,1.818,0,0,1,762.513,440.2Z" transform="translate(265.631 -108.879)" fill="#3f3d56"/>
    <path id="Path_23" data-name="Path 23" d="M763.485,440.2c-4.527,1.735-8.562,1.864-12.7-1.012a9.094,9.094,0,0,0-5.41-1.781c1.555-.823,6.711-2.853,15.852.086a3.812,3.812,0,0,1,1.738,1.139,1.818,1.818,0,0,1,.523,1.569Z" transform="translate(264.66 -108.879)" opacity="0.1"/>
    <ellipse id="Ellipse_4" data-name="Ellipse 4" cx="1.603" cy="0.493" rx="1.603" ry="0.493" transform="translate(1020.866 329.326)" fill="#f2f2f2"/>
    <path id="Path_24" data-name="Path 24" d="M428.4,415.2v1.233H362.071v-.986l.091-.247Z" transform="translate(574.223 -82.665)" opacity="0.1"/>
    <circle id="Ellipse_5" data-name="Ellipse 5" cx="13.13" cy="13.13" r="13.13" transform="translate(934.344 230.387)" fill="#ffb9b9"/>
    <path id="Path_26" data-name="Path 26" d="M534.957,208.356v20.731h21.422s-2.764-17.276-1.382-22.458Z" transform="translate(402.842 41.725)" fill="#ffb9b9"/>
    <path id="Path_27" data-name="Path 27" d="M525.9,260.345s-20.385-10.02-20.385-10.711-2.073-5.183-3.455-5.183-13.13-3.8-19.694,1.728l-.691,4.492-25.223,16.585,6.91,25.223s4.492,4.837,3.11,8.292,1.037,21.076,1.037,21.076l54.246-1.728V296.624a54.809,54.809,0,0,1,2.764-7.256c1.037-1.728,0-6.91,0-6.91l8.292-10.365S531.773,262.418,525.9,260.345Z" transform="translate(454.398 17.723)" fill="#d0cde1"/>
    <path id="Path_28" data-name="Path 28" d="M446.58,321.781l1.555-8.465s-8.983,39.043-7.947,43.535,8.638,11.4,9.674,11.747,10.711-29.714,10.711-29.714Z" transform="translate(465.133 -28.338)" opacity="0.1"/>
    <path id="Path_29" data-name="Path 29" d="M446.963,310.3l-5.874,1.037s-8.983,39.043-7.947,43.535,8.638,11.4,9.674,11.747S453.528,336.9,453.528,336.9Z" transform="translate(469.76 -26.355)" fill="#d0cde1"/>
    <path id="Path_30" data-name="Path 30" d="M646.115,333.108l2.937-5.7s4.146,39.043,1.382,42.844-13.7,5.223-13.7,5.223l-.122-28.372Z" transform="translate(336.083 -37.592)" opacity="0.1"/>
    <path id="Path_31" data-name="Path 31" d="M650.6,314.323l4.492,4.492s4.146,39.043,1.382,42.844-13.7,5.223-13.7,5.223l-.122-28.372Z" transform="translate(332.118 -28.999)" fill="#d0cde1"/>
    <path id="Path_32" data-name="Path 32" d="M447.46,485.536s-10.02-3.8-11.747,3.455,4.146,39.734,4.146,39.734,3.8,24.531,6.219,25.222,13.13,1.037,14.857-2.073-5.183-34.9-5.183-34.9l40.08-.691s-2.419,27.641-3.8,30.06-1.382,10.711,0,10.711,16.585-.691,17.621-2.764,6.91-48.717,6.91-48.717,4.837-16.239-.691-15.2S447.46,485.536,447.46,485.536Z" transform="translate(468.226 -140.784)" fill="#3f3d56"/>
    <path id="Path_33" data-name="Path 33" d="M616.874,681.649s3.455-2.419,5.183,0,2.419,5.183-5.183,9.329S603.4,694.087,603.4,693.4v-10.02Z" transform="translate(357.896 -269.522)" fill="#2f2e41"/>
    <path id="Path_34" data-name="Path 34" d="M456.463,678.629s-3.455-2.419-5.183,0-2.419,5.183,5.183,9.329,13.475,3.11,13.475,2.419v-10.02Z" transform="translate(458.533 -267.539)" fill="#2f2e41"/>
    <path id="Path_35" data-name="Path 35" d="M534.827,144.3a11.1,11.1,0,0,0-3.856.55,14.91,14.91,0,0,0-2.747,1.454l-5.8,3.6a2.715,2.715,0,0,0-1.636,2.53l-.724,5.425a7.061,7.061,0,0,0,.261,4.071,11.227,11.227,0,0,0,2.289,2.568,9.426,9.426,0,0,1,2.484,4.827c.415,2.265.149,4.992,1.941,6.438a6.09,6.09,0,0,0,3.538,1,52.793,52.793,0,0,0,10.2-.392,4.057,4.057,0,0,0,1.54-.432,4.23,4.23,0,0,0,1.352-1.607c1.294-2.2,2.629-4.548,2.615-7.1-.007-1.264-.331-2.622.277-3.731a14.592,14.592,0,0,1,1.043-1.354,7.482,7.482,0,0,0,1.021-3.7c.391-4.122-.018-7.26-3.056-10.163A15.739,15.739,0,0,0,534.827,144.3Z" transform="translate(412.732 82.662)" fill="#2f2e41"/>
    <path id="Path_36" data-name="Path 36" d="M278.877,569.7l-11.531,58.618h5.765l11.051-57.657Z" transform="translate(636.43 -184.132)" fill="#2f2e41"/>
    <path id="Path_37" data-name="Path 37" d="M408.708,580.023l7.207,67.266h4.8L416.4,578.1Z" transform="translate(543.596 -189.647)" fill="#2f2e41"/>
    <path id="Path_38" data-name="Path 38" d="M466.093,576.263l10.09,44.684h4.8L471.378,575.3Z" transform="translate(505.91 -187.809)" fill="#2f2e41"/>
    <path id="Path_39" data-name="Path 39" d="M351.365,578.1l-1.441,35.555h3.844l2.883-35.555Z" transform="translate(582.2 -189.647)" fill="#2f2e41"/>
    <path id="Path_40" data-name="Path 40" d="M443.1,485.818s-7.688-51.411,13.934-52.852,52.372,0,52.372,0,17.777-1.441,12.492,52.852c0,0,4.8,15.856-38.438,14.414S443.1,485.818,443.1,485.818Z" transform="translate(464.036 -106.494)" fill="#f79b20"/>
    <rect id="Rectangle_3" data-name="Rectangle 3" width="29.523" height="34.613" transform="translate(861.776 291.716)" fill="#3f3d56"/>
    <rect id="Rectangle_4" data-name="Rectangle 4" width="20.36" height="23.871" transform="translate(866.357 297.087)" fill="#f2f2f2"/>
  </g>
</svg>
